<svg xmlns="http://www.w3.org/2000/svg" width="1387" height="756" viewBox="0 0 1387 756">
<g>
<path d="M 407.47 696.99 C392.97,699.04 361.16,700.34 349.50,699.37 C335.94,698.24 311.01,694.66 304.18,692.86 C299.95,691.75 293.12,690.01 289.00,688.99 C270.13,684.34 237.92,671.25 221.14,661.42 C218.04,659.60 213.35,656.85 210.71,655.31 C208.08,653.76 200.30,648.60 193.42,643.83 C135.26,603.54 90.86,541.03 70.63,471.00 C48.53,394.47 55.81,307.43 90.22,237.00 C116.92,182.36 159.52,135.56 211.20,104.11 C221.74,97.69 243.71,86.93 257.02,81.66 C324.86,54.81 403.21,54.10 473.00,79.72 C498.09,88.93 535.15,109.79 555.70,126.25 C588.44,152.49 614.76,183.19 635.21,219.00 C676.12,290.65 687.75,381.38 666.46,462.78 C652.64,515.62 627.27,561.72 589.64,602.37 C556.53,638.13 510.97,667.49 463.50,683.66 C448.01,688.93 423.94,694.66 407.47,696.99 ZM 340.50 680.39 C342.15,680.62 355.88,680.69 371.00,680.52 C398.61,680.23 405.71,679.51 426.50,674.87 C433.18,673.37 453.50,667.58 458.50,665.74 C479.07,658.18 492.67,651.98 508.50,642.95 C547.97,620.45 587.07,582.92 610.59,544.97 C613.84,539.73 617.06,534.55 617.75,533.47 C621.28,527.89 632.79,504.18 636.59,494.67 C646.32,470.29 654.25,438.01 657.05,411.34 C658.56,396.95 658.57,364.56 657.06,349.00 C653.58,312.88 642.77,275.61 625.90,241.50 C618.22,225.95 617.93,225.46 606.69,208.50 C563.47,143.29 492.81,96.82 416.69,83.56 C402.76,81.13 378.81,79.00 365.61,79.01 C330.77,79.04 290.46,87.43 257.31,101.57 C215.66,119.32 175.75,148.57 149.00,180.95 C146.52,183.94 143.13,187.99 141.47,189.95 C131.03,202.18 116.03,226.37 106.72,246.00 C80.37,301.54 71.11,361.73 79.50,423.00 C89.24,494.16 124.30,560.19 177.51,607.62 C188.44,617.36 203.07,628.59 211.88,634.00 C215.91,636.47 220.84,639.58 222.85,640.90 C229.13,645.02 252.34,656.52 263.15,660.85 C287.02,670.42 307.92,675.70 340.50,680.39 ZM 406.89 660.06 C391.34,662.38 356.30,663.42 343.00,661.94 C286.56,655.68 236.94,634.49 193.00,597.90 C165.51,575.00 143.00,546.92 125.59,513.78 C116.66,496.77 113.38,489.13 107.02,470.50 C90.25,421.35 87.94,364.84 100.53,311.50 C112.93,258.97 141.16,209.73 180.23,172.50 C200.75,152.94 219.07,139.74 243.23,127.10 C272.55,111.76 305.51,101.60 337.50,98.02 C349.32,96.70 384.49,96.72 396.79,98.05 C424.86,101.09 458.10,110.62 483.00,122.76 C527.20,144.31 565.04,176.82 592.22,216.62 C596.40,222.74 600.54,229.04 601.44,230.62 C602.33,232.20 604.00,235.07 605.16,237.00 C609.64,244.47 617.00,260.11 622.34,273.50 C640.39,318.79 646.62,369.82 639.90,417.25 C632.88,466.81 618.66,502.99 589.30,546.00 C582.32,556.22 567.34,573.71 556.00,584.89 C548.80,591.99 530.90,607.11 525.09,611.00 C523.04,612.38 517.12,616.34 511.93,619.81 C500.39,627.53 472.38,641.46 457.50,646.89 C441.39,652.76 422.10,657.78 406.89,660.06 ZM 415.50 754.33 C414.87,754.42 414.50,754.49 414.51,754.57 C414.52,755.65 488.95,755.81 895.75,755.90 L 1387.00 756.00 L 0.00 756.00 L 0.00 0.00 L 1387.00 0.00 L 884.25 0.19 C609.75,0.29 387.46,0.51 387.46,0.68 C387.46,0.68 387.48,0.68 387.50,0.69 C437.60,3.26 488.68,16.79 531.00,38.72 C542.78,44.82 557.89,53.68 565.64,59.03 C568.86,61.26 573.30,64.26 575.50,65.69 C585.53,72.24 599.47,83.65 614.77,97.83 C624.13,106.50 646.06,129.88 650.23,135.64 C651.48,137.35 655.03,142.11 658.12,146.20 C678.82,173.58 696.81,207.44 710.62,245.00 C714.58,255.76 714.52,259.28 710.28,264.86 C706.99,269.20 701.92,271.33 696.90,270.48 C689.68,269.26 686.68,265.41 681.01,250.03 C679.41,245.69 677.64,241.31 677.07,240.32 C676.50,239.32 673.54,233.10 670.48,226.50 C663.94,212.40 659.65,204.86 647.42,186.00 C628.74,157.19 596.28,122.79 567.48,101.27 C562.19,97.32 539.68,82.38 533.50,78.73 C526.47,74.57 501.78,62.61 491.00,58.14 C475.01,51.51 442.19,42.11 424.50,39.08 C386.80,32.64 343.58,32.80 306.81,39.53 C277.46,44.90 245.19,55.96 217.00,70.31 C194.63,81.69 177.50,92.88 154.00,111.43 C144.56,118.88 117.27,146.11 109.43,155.89 C99.70,168.03 90.00,181.17 86.85,186.50 C85.22,189.25 82.12,194.20 79.96,197.50 C71.70,210.13 56.02,242.80 49.49,261.00 C41.56,283.08 34.34,313.27 30.82,339.00 C29.05,351.95 29.04,411.80 30.80,426.00 C35.04,460.12 45.94,498.47 60.17,529.36 C80.82,574.19 109.20,612.87 144.50,644.29 C183.84,679.31 229.12,704.48 278.00,718.51 C307.91,727.10 327.93,730.06 360.50,730.72 C382.20,731.16 387.87,730.94 403.50,729.03 C424.81,726.44 435.03,724.43 454.23,719.07 C503.77,705.25 548.72,680.52 589.50,644.64 C627.42,611.28 664.07,559.11 680.59,515.00 C681.92,511.42 683.44,507.60 683.95,506.50 C685.83,502.45 691.99,482.90 694.39,473.35 C703.23,438.24 705.09,422.65 705.98,376.50 C706.67,340.84 706.84,338.17 708.86,333.22 C714.87,318.48 722.81,310.53 738.00,304.06 C750.17,298.87 756.57,297.79 778.96,297.12 L 799.43 296.50 L 800.22 293.50 C800.66,291.85 803.99,277.45 807.61,261.50 C815.72,225.84 815.57,226.45 816.98,223.04 C819.66,216.58 831.00,216.32 833.89,222.66 C835.56,226.33 835.27,229.12 831.44,246.00 C828.09,260.78 820.99,293.39 820.66,295.50 C820.56,296.13 829.12,296.68 843.84,297.00 L 867.18 297.50 L 869.70 300.43 C871.76,302.84 872.12,304.07 871.68,307.33 C871.39,309.51 870.21,312.24 869.05,313.40 C867.05,315.40 865.69,315.52 841.30,316.00 L 815.64 316.50 L 812.32 331.50 C810.49,339.75 807.65,352.12 806.01,359.00 C801.17,379.20 795.18,410.63 793.41,425.08 C791.45,441.13 791.91,462.72 794.39,470.60 C796.43,477.09 801.91,484.30 806.18,486.10 C811.25,488.24 820.62,487.70 826.50,484.94 C839.58,478.79 859.64,452.44 867.93,430.50 C869.18,427.20 871.01,422.48 871.99,420.00 C872.98,417.52 875.90,408.08 878.50,399.00 C885.18,375.61 891.32,363.07 902.36,350.23 C909.54,341.88 914.82,338.00 918.98,338.00 C922.83,338.00 926.79,340.82 927.97,344.40 C929.54,349.16 927.64,353.07 920.27,360.26 C903.75,376.38 892.61,409.33 894.33,437.00 C896.21,467.23 909.68,486.17 930.39,487.70 C950.40,489.17 968.14,473.94 978.36,446.50 C981.11,439.13 984.96,422.42 984.98,417.75 C985.00,415.14 984.77,415.00 980.25,414.99 C959.42,414.92 938.31,400.13 931.77,381.00 C928.54,371.54 928.59,356.89 931.89,348.20 C934.74,340.70 940.40,334.46 947.52,330.95 C951.80,328.84 953.91,328.50 962.50,328.50 C971.99,328.50 972.82,328.67 978.81,331.92 C982.28,333.81 987.19,337.63 989.72,340.42 C998.04,349.61 1004.47,367.06 1005.69,383.75 C1006.07,388.86 1006.73,392.00 1007.43,392.00 C1011.98,392.00 1030.71,380.17 1037.06,373.28 C1043.13,366.70 1050.02,354.95 1054.10,344.23 C1055.92,339.46 1065.53,338.43 1069.67,342.58 C1073.50,346.41 1072.51,351.83 1065.39,365.97 C1060.10,376.47 1058.64,378.44 1049.04,388.00 C1037.46,399.54 1027.68,405.80 1014.21,410.31 C1010.20,411.65 1006.72,412.94 1006.49,413.18 C1006.26,413.41 1005.36,418.08 1004.50,423.55 C1002.53,435.98 995.99,458.09 991.85,466.30 C978.75,492.28 956.57,508.00 933.00,508.00 C908.53,508.00 889.10,493.01 879.91,467.04 C877.27,459.60 875.74,457.63 874.69,460.36 C872.62,465.75 861.27,480.87 853.48,488.61 C843.42,498.61 835.01,503.98 825.54,506.45 C802.13,512.54 781.53,499.62 774.50,474.44 C771.95,465.31 771.41,440.58 773.39,423.56 C775.86,402.35 778.65,388.30 791.50,332.50 C792.77,327.00 794.13,320.97 794.52,319.10 L 795.22 315.70 L 780.36 316.27 C752.95,317.32 740.88,321.87 734.69,333.50 C732.24,338.11 732.01,344.88 733.41,371.50 C735.24,406.09 729.15,451.53 717.40,491.00 C706.35,528.13 685.40,571.84 665.87,598.50 C664.26,600.70 662.17,603.62 661.24,605.00 C648.05,624.37 613.61,661.08 595.85,674.70 C593.84,676.24 588.67,680.20 584.37,683.50 C576.08,689.86 575.94,689.96 565.33,697.09 C521.78,726.35 466.11,747.62 415.50,754.33 ZM 0.17 184.25 C0.27,284.07 0.48,364.06 0.65,364.06 C0.66,364.06 0.66,364.04 0.66,364.00 C2.79,333.19 4.11,322.54 8.95,297.20 C11.97,281.43 22.14,248.19 29.67,229.50 C35.23,215.69 49.63,186.59 55.15,178.00 C57.45,174.43 61.47,168.12 64.09,164.00 C97.37,111.61 153.88,62.05 210.74,35.37 C217.21,32.34 223.37,29.39 224.42,28.81 C225.48,28.24 231.11,25.99 236.92,23.82 C272.22,10.63 304.30,3.60 340.50,1.11 C347.51,0.63 279.18,0.23 176.25,0.14 L 0.00 0.00 ZM 0.19 573.25 L 0.00 756.00 L 164.25 755.90 C328.24,755.80 328.48,755.80 315.78,753.95 C299.85,751.63 274.90,745.90 260.50,741.25 C249.56,737.72 228.70,729.93 225.29,728.11 C224.30,727.58 217.88,724.49 211.00,721.24 C181.17,707.14 146.57,683.37 120.99,659.41 C103.49,643.01 91.50,629.57 75.43,608.34 C69.30,600.24 66.84,596.63 58.50,583.51 C56.07,579.69 46.36,562.64 42.14,554.79 C36.08,543.52 24.02,513.86 19.59,499.31 C7.92,460.99 2.47,431.38 0.69,396.50 C0.68,396.43 0.68,396.40 0.68,396.40 C0.51,396.40 0.29,474.75 0.19,573.25 ZM 1387.00 557.53 L 1384.75 560.83 C1366.28,587.95 1346.83,603.46 1320.66,611.91 C1308.11,615.97 1296.48,617.40 1282.00,616.66 C1268.59,615.98 1262.53,614.95 1247.50,610.81 C1224.95,604.59 1190.75,588.69 1159.50,569.88 C1157.85,568.89 1154.77,567.13 1152.67,565.98 L 1148.83 563.87 L 1145.67 566.43 C1137.25,573.24 1118.91,587.01 1114.00,590.19 C1091.63,604.73 1068.54,611.89 1052.93,609.14 C1025.35,604.29 1011.07,579.00 1020.02,550.87 C1023.43,540.15 1033.78,528.98 1045.00,523.91 C1069.44,512.86 1099.92,516.40 1135.60,534.40 C1140.61,536.93 1145.14,539.00 1145.68,539.00 C1147.10,539.00 1179.13,506.16 1189.56,494.00 C1201.66,479.89 1216.04,461.68 1223.04,451.60 C1224.99,448.79 1228.25,444.14 1230.29,441.26 C1246.57,418.26 1265.00,383.09 1274.98,355.95 C1278.37,346.74 1284.26,324.34 1286.00,314.00 C1288.02,302.04 1288.36,276.52 1286.64,265.37 C1283.65,245.86 1276.05,226.66 1266.19,213.70 C1252.60,195.83 1237.38,185.72 1215.52,180.05 C1205.19,177.36 1202.13,177.00 1189.98,177.00 C1174.57,177.00 1165.59,178.39 1152.30,182.85 C1140.96,186.65 1132.47,191.60 1122.87,200.03 C1110.04,211.30 1103.47,220.11 1096.46,235.50 C1092.54,244.09 1087.58,261.54 1086.42,270.77 C1085.19,280.63 1077.36,285.22 1070.71,279.98 C1065.98,276.27 1065.61,272.68 1068.47,258.57 C1071.67,242.73 1073.81,236.32 1080.49,222.50 C1089.58,203.71 1103.04,188.31 1120.50,176.76 C1140.88,163.27 1158.01,158.10 1185.06,157.28 C1200.05,156.83 1202.86,157.02 1214.71,159.37 C1241.47,164.66 1263.23,177.69 1279.71,198.28 C1292.59,214.38 1300.40,232.16 1306.15,258.50 C1308.18,267.76 1307.84,304.98 1305.63,316.91 C1299.12,351.96 1289.38,378.92 1270.72,413.50 C1257.22,438.53 1245.24,456.54 1223.65,484.27 C1206.73,506.00 1198.51,515.28 1176.25,537.76 C1170.06,544.01 1165.00,549.44 1165.01,549.81 C1165.01,550.19 1169.40,552.88 1174.76,555.79 C1180.11,558.70 1188.10,563.12 1192.50,565.61 C1196.90,568.11 1206.35,572.83 1213.50,576.12 C1220.65,579.40 1227.38,582.58 1228.46,583.18 C1232.25,585.30 1253.35,591.97 1262.65,593.98 C1290.48,600.01 1315.20,596.24 1336.00,582.80 C1346.90,575.76 1357.85,564.26 1368.84,548.32 C1371.91,543.87 1376.70,542.43 1381.63,544.49 C1383.72,545.36 1385.78,546.62 1386.20,547.29 C1386.20,547.29 1386.20,547.29 1386.20,547.29 C1386.62,547.29 1386.98,424.68 1386.98,274.25 L 1387.00 0.00 L 1387.00 557.53 ZM 526.85 585.15 C527.25,586.23 527.25,586.23 538.37,576.43 C549.97,566.21 575.00,537.34 575.00,534.18 C575.00,533.30 528.66,487.82 503.43,463.95 C491.37,452.54 452.48,419.14 445.35,414.06 C441.92,411.62 441.51,411.58 426.17,411.87 C417.55,412.04 410.37,412.30 410.21,412.46 C410.04,412.62 413.92,423.72 418.83,437.13 C423.73,450.53 428.32,463.30 429.01,465.50 C430.38,469.83 432.64,473.48 437.43,479.09 C439.12,481.07 444.33,487.31 449.00,492.96 C453.67,498.61 462.00,508.49 467.50,514.90 C473.00,521.32 479.30,528.77 481.50,531.45 C483.70,534.14 488.65,540.01 492.50,544.51 C496.35,549.00 501.30,554.86 503.50,557.53 C505.70,560.20 511.77,567.29 517.00,573.28 C522.22,579.28 526.66,584.62 526.85,585.15 ZM 196.23 576.75 C199.92,580.19 203.17,583.00 203.43,583.00 C203.69,583.00 213.64,571.64 225.54,557.75 C237.44,543.86 249.42,529.93 252.16,526.79 C254.90,523.65 258.12,519.83 259.31,518.29 C260.50,516.76 266.38,509.65 272.39,502.50 C278.39,495.35 284.93,487.53 286.90,485.11 C288.88,482.70 292.11,478.82 294.08,476.50 C296.33,473.85 298.90,468.79 301.01,462.89 C302.85,457.72 307.87,444.30 312.16,433.06 C316.44,421.82 319.85,412.53 319.73,412.43 C319.60,412.33 312.22,412.04 303.33,411.79 L 287.16 411.35 L 278.33 418.29 C273.47,422.10 266.80,427.57 263.50,430.43 C260.20,433.29 254.35,438.25 250.50,441.47 C236.90,452.81 192.91,495.03 163.65,524.81 C156.77,531.81 156.77,531.94 164.25,541.80 C173.31,553.75 183.67,565.07 196.23,576.75 ZM 336.42 312.67 C341.87,318.35 346.69,323.00 347.12,323.00 C347.55,323.00 348.13,321.54 348.41,319.75 C349.77,310.86 352.12,297.05 354.53,283.79 L 357.20 269.07 L 350.61 233.29 C344.05,197.73 340.62,179.16 334.95,148.50 C333.32,139.70 331.54,130.33 330.99,127.67 C330.45,125.02 330.00,121.70 330.00,120.31 C330.00,117.80 329.93,117.78 324.25,118.48 C315.81,119.51 293.18,125.54 282.66,129.55 C268.44,134.96 260.49,138.59 260.64,139.59 C260.79,140.57 282.06,206.09 289.99,230.00 C296.50,249.63 307.80,279.89 309.84,283.16 C311.78,286.27 322.39,298.05 336.42,312.67 ZM 410.00 346.88 C410.00,347.66 414.79,348.00 425.66,348.00 L 441.32 348.00 L 446.91 343.83 C449.98,341.53 453.89,338.50 455.59,337.08 C457.29,335.66 460.60,332.92 462.94,331.00 C485.19,312.73 514.68,285.30 549.26,250.71 C573.23,226.73 574.95,224.77 573.87,222.71 C568.85,213.12 534.12,176.00 530.17,176.00 C529.18,176.00 526.17,178.73 523.44,182.12 C517.93,188.95 508.38,200.67 503.97,206.00 C502.39,207.93 499.83,211.14 498.29,213.14 C491.71,221.74 455.74,264.07 444.05,277.00 C433.03,289.18 430.72,292.39 428.57,298.50 C425.85,306.23 419.20,323.39 414.37,335.13 C411.97,340.98 410.00,346.27 410.00,346.88 ZM 381.15 319.00 L 382.25 324.50 L 387.75 318.50 C419.18,284.19 418.87,284.57 422.39,275.84 C426.17,266.46 444.10,213.10 454.93,179.00 C458.87,166.62 463.60,152.10 465.45,146.73 L 468.81 136.96 L 466.05 135.53 C452.30,128.42 402.89,114.78 400.29,117.38 C399.96,117.70 398.69,123.71 397.45,130.73 C390.55,169.93 387.03,189.16 379.99,226.00 C378.36,234.52 375.86,247.70 374.42,255.27 L 371.82 269.05 L 373.87 279.77 C375.00,285.67 376.85,295.67 377.99,302.00 C379.13,308.33 380.55,315.98 381.15,319.00 ZM 399.49 641.67 C399.70,642.32 400.69,642.67 401.69,642.45 C402.68,642.24 409.58,640.89 417.00,639.46 C435.01,635.99 466.53,625.40 467.66,622.43 C467.89,621.85 465.99,615.32 463.45,607.93 C460.90,600.54 457.31,590.00 455.46,584.50 C451.47,572.61 441.76,544.00 432.55,517.00 C421.16,483.57 420.13,481.17 413.56,472.62 C410.23,468.29 406.62,463.56 405.54,462.12 C404.46,460.68 398.87,453.95 393.13,447.16 C385.90,438.61 382.46,435.22 381.95,436.16 C381.55,436.90 379.57,447.17 377.55,459.00 C375.52,470.83 373.40,482.41 372.82,484.74 C371.96,488.22 372.24,491.52 374.41,503.24 C381.54,541.68 384.25,556.63 389.97,589.01 C391.57,598.09 393.56,608.89 394.39,613.01 C395.22,617.13 396.62,625.00 397.50,630.50 C398.39,636.00 399.28,641.03 399.49,641.67 ZM 283.19 344.75 L 287.19 348.00 L 303.04 348.00 C311.75,348.00 319.14,347.58 319.46,347.07 C319.77,346.56 319.40,344.64 318.62,342.82 C317.84,340.99 315.83,336.35 314.16,332.50 C312.50,328.65 309.29,320.77 307.03,315.00 C304.78,309.23 301.80,301.62 300.41,298.09 C298.43,293.06 295.56,289.07 287.10,279.59 C275.13,266.16 259.90,248.52 247.00,233.10 C227.95,210.35 225.38,207.25 222.50,203.60 C210.55,188.44 202.34,178.58 201.45,178.30 C199.36,177.64 171.45,207.05 164.75,217.00 C163.82,218.38 161.71,221.42 160.05,223.76 L 157.03 228.02 L 176.77 247.86 C209.34,280.62 228.74,298.74 263.50,328.90 C265.15,330.33 269.36,333.75 272.85,336.50 C276.34,339.25 280.99,342.96 283.19,344.75 ZM 314.26 638.96 C324.75,641.16 327.77,641.49 328.82,640.52 C329.54,639.84 331.20,633.27 332.50,625.90 C333.81,618.53 336.97,601.25 339.54,587.50 C347.90,542.65 351.91,520.76 354.62,505.22 L 357.27 489.94 L 354.51 474.22 C352.99,465.58 351.13,454.67 350.39,450.00 C348.10,435.70 347.94,435.00 347.02,435.00 C346.54,435.00 341.59,440.51 336.03,447.25 C330.47,453.99 324.26,461.49 322.21,463.93 C315.31,472.18 310.78,478.48 309.26,482.00 C307.33,486.44 284.46,552.46 274.97,581.00 C273.42,585.67 269.86,596.02 267.07,604.00 C264.28,611.97 262.00,619.18 262.00,620.01 C262.00,623.26 292.92,634.47 314.26,638.96 ZM 534.50 371.37 C537.25,372.18 540.40,372.58 541.50,372.27 C542.60,371.95 546.42,370.90 550.00,369.94 C553.58,368.98 563.47,366.30 572.00,363.99 C580.53,361.67 592.90,358.52 599.50,356.98 C606.10,355.45 613.97,353.55 617.00,352.76 L 622.50 351.33 L 622.24 346.42 C621.54,333.54 616.36,310.67 609.79,291.50 C604.93,277.31 603.39,274.00 601.66,274.00 C600.95,274.00 598.04,275.12 595.19,276.50 C592.34,277.88 589.60,279.00 589.11,279.00 C588.61,279.00 584.90,280.53 580.85,282.40 C576.81,284.27 568.07,288.08 561.44,290.86 C544.68,297.88 506.83,315.39 499.00,319.74 C495.42,321.72 486.65,328.33 479.49,334.42 C472.34,340.52 465.21,346.49 463.66,347.71 C462.10,348.93 461.10,350.36 461.43,350.89 C461.76,351.42 468.21,353.27 475.76,355.01 C483.32,356.74 492.20,359.00 495.50,360.03 C498.80,361.07 507.80,363.71 515.50,365.90 C523.20,368.10 531.75,370.56 534.50,371.37 ZM 593.50 482.62 C597.34,484.48 600.82,486.00 601.23,486.00 C603.54,486.00 613.50,457.71 617.41,440.00 C620.04,428.12 623.32,408.94 622.80,408.53 C622.63,408.40 611.47,405.69 598.00,402.50 C584.53,399.31 571.92,396.16 570.00,395.49 C568.08,394.82 560.36,392.61 552.86,390.57 L 539.22 386.87 L 514.36 393.85 C500.69,397.68 483.88,402.26 477.00,404.02 C470.12,405.78 463.42,407.53 462.11,407.91 C459.86,408.55 460.11,408.90 466.11,413.63 C469.62,416.41 476.77,422.40 482.00,426.96 C487.23,431.51 493.19,436.32 495.26,437.64 C498.33,439.60 514.85,447.43 544.50,460.97 C546.70,461.98 557.05,466.50 567.50,471.02 C577.95,475.54 589.65,480.76 593.50,482.62 ZM 182.50 369.91 C192.38,372.55 194.05,372.46 207.50,368.54 C214.10,366.62 223.55,363.87 228.50,362.43 C233.45,360.99 244.25,358.04 252.50,355.88 C260.75,353.73 268.13,351.73 268.90,351.45 C269.86,351.11 269.21,350.11 266.76,348.23 C261.90,344.47 251.37,335.80 242.00,327.83 C235.58,322.38 230.28,319.27 212.83,310.69 C201.10,304.93 187.00,298.20 181.50,295.72 C176.00,293.25 166.77,289.11 161.00,286.52 C155.23,283.93 149.15,281.14 147.50,280.31 C143.43,278.27 131.81,273.85 131.47,274.21 C131.32,274.37 129.61,278.57 127.67,283.54 C121.11,300.37 115.69,322.39 111.61,348.82 C111.18,351.62 112.52,352.23 125.38,355.05 C130.40,356.15 143.73,359.53 155.00,362.55 C166.27,365.57 178.65,368.89 182.50,369.91 ZM 131.01 483.75 C131.53,484.99 132.21,486.00 132.52,486.00 C133.08,486.00 141.85,482.06 151.50,477.48 C154.25,476.17 165.95,470.75 177.50,465.43 C220.98,445.39 234.02,438.54 241.62,431.77 C245.50,428.32 253.26,421.73 258.88,417.13 C264.49,412.52 268.91,408.58 268.69,408.36 C268.48,408.14 258.67,405.33 246.90,402.10 C235.13,398.87 218.41,394.15 209.75,391.61 C196.56,387.75 193.38,387.14 190.25,387.87 C188.19,388.36 179.07,390.81 170.00,393.31 C155.54,397.30 113.61,408.00 112.43,408.00 C110.58,408.00 115.97,439.07 120.04,451.76 C121.67,456.86 123.00,461.48 123.00,462.03 C123.00,462.92 128.37,477.49 131.01,483.75 ZM 1056.50 589.32 C1069.33,592.20 1093.46,581.79 1118.08,562.75 C1118.70,562.27 1119.29,561.81 1119.85,561.38 C1125.62,556.94 1128.12,555.01 1127.88,553.54 C1127.66,552.27 1125.37,551.36 1121.32,549.47 C1112.26,545.23 1098.50,540.59 1090.08,538.94 C1086.79,538.29 1079.02,537.95 1072.36,538.17 C1061.92,538.52 1059.75,538.91 1054.25,541.42 C1039.72,548.05 1033.23,563.37 1039.37,576.54 C1042.77,583.85 1047.34,587.26 1056.50,589.32 ZM 346.25 644.28 C348.04,644.50 357.50,644.75 367.28,644.84 C381.88,644.97 385.16,644.74 385.61,643.57 C386.45,641.39 381.42,611.21 372.45,564.50 C370.55,554.60 368.19,541.65 367.21,535.71 C366.22,529.78 364.99,524.93 364.46,524.94 C363.93,524.94 363.18,527.99 362.80,531.72 C362.41,535.45 361.15,543.22 360.00,549.00 C358.86,554.78 356.62,566.70 355.03,575.50 C353.44,584.30 350.08,602.75 347.57,616.50 C345.06,630.25 343.00,642.03 343.00,642.69 C343.00,643.34 344.46,644.05 346.25,644.28 ZM 445.04 254.28 C445.06,254.95 446.65,253.70 448.58,251.50 C456.26,242.75 471.78,224.42 476.50,218.52 C479.25,215.09 485.55,207.42 490.50,201.46 C514.83,172.20 519.04,166.87 518.51,166.02 C516.75,163.16 483.95,143.00 481.08,143.00 C480.53,143.00 479.13,146.26 477.96,150.25 C474.46,162.25 460.26,206.73 450.03,237.78 C447.27,246.19 445.02,253.62 445.04,254.28 ZM 363.64 229.35 C364.58,234.08 365.69,231.13 367.93,218.00 C370.44,203.26 375.06,178.29 379.02,158.00 C383.63,134.41 386.35,117.02 385.56,116.23 C384.66,115.34 344.42,115.24 343.54,116.13 C342.89,116.78 347.80,146.60 352.99,173.50 C354.58,181.75 357.50,197.05 359.48,207.50 C361.45,217.95 363.33,227.78 363.64,229.35 ZM 281.30 252.65 C282.48,254.64 284.34,254.31 283.52,252.25 C281.76,247.78 261.56,186.34 255.99,168.50 C252.56,157.50 249.35,147.73 248.86,146.79 C248.04,145.21 247.70,145.23 244.24,147.19 C235.94,151.86 218.96,163.02 214.75,166.55 L 211.82 169.03 L 214.66 172.39 C216.22,174.25 219.52,178.34 222.00,181.49 C224.48,184.64 229.20,190.50 232.50,194.51 C235.80,198.52 240.75,204.64 243.50,208.11 C249.47,215.64 265.74,234.78 274.33,244.40 C277.72,248.19 280.86,251.91 281.30,252.65 ZM 476.80 605.75 C478.76,611.94 480.55,617.00 480.76,617.00 C482.53,617.00 513.84,597.10 515.81,594.72 C516.64,593.72 514.28,590.37 505.70,580.36 C499.54,573.18 490.45,562.48 485.50,556.58 C464.12,531.08 445.73,509.94 445.30,510.37 C444.69,510.97 448.33,522.19 462.03,562.00 C468.19,579.88 474.83,599.56 476.80,605.75 ZM 236.45 607.20 C243.08,611.43 248.80,614.58 249.18,614.20 C249.55,613.81 253.29,603.38 257.49,591.00 C261.69,578.62 268.29,559.28 272.16,548.00 C285.93,507.94 286.28,506.60 281.66,512.06 C280.47,513.47 269.38,526.50 257.00,541.01 C244.62,555.53 233.38,568.86 232.00,570.64 C230.62,572.42 226.24,577.67 222.25,582.31 C218.26,586.95 215.00,591.18 215.00,591.70 C215.00,592.95 221.56,597.69 236.45,607.20 ZM 440.00 393.44 C444.24,396.88 446.07,397.78 448.00,397.36 C449.38,397.06 453.65,396.15 457.50,395.35 C465.73,393.63 479.24,390.29 483.50,388.92 C485.15,388.39 492.58,386.35 500.00,384.40 C507.42,382.44 513.89,380.46 514.38,379.99 C514.86,379.52 513.31,378.65 510.88,378.04 C508.47,377.43 502.90,375.85 498.50,374.52 C494.10,373.19 486.00,371.00 480.50,369.64 C475.00,368.29 468.02,366.46 465.00,365.57 C461.98,364.69 456.06,363.69 451.85,363.35 L 444.21 362.72 L 433.35 370.55 C427.38,374.85 422.32,378.51 422.11,378.66 C421.33,379.23 424.27,381.99 429.34,385.46 C432.18,387.40 436.98,390.99 440.00,393.44 ZM 271.50 394.91 C282.81,397.66 283.65,397.56 289.94,392.69 C293.00,390.31 298.31,386.42 301.75,384.04 C305.19,381.66 308.00,379.65 308.00,379.57 C308.00,379.49 304.81,377.19 300.91,374.46 C297.01,371.73 292.02,368.04 289.81,366.25 C286.89,363.87 284.83,363.01 282.16,363.04 C273.20,363.14 218.57,377.48 219.16,379.58 C219.30,380.09 221.01,381.06 222.96,381.74 C227.11,383.19 259.92,392.09 271.50,394.91 ZM 970.54 392.91 C973.95,394.09 978.43,394.88 981.00,394.74 L 985.50 394.50 L 985.82 389.50 C986.42,380.22 982.55,364.68 977.87,357.62 C973.56,351.11 969.74,348.68 963.07,348.20 C958.56,347.88 957.00,348.20 954.88,349.88 C951.00,352.94 949.00,357.99 949.00,364.74 C949.00,376.81 957.96,388.53 970.54,392.91 ZM 358.68 399.04 C371.15,403.01 384.71,392.14 384.38,378.45 C384.24,372.70 382.45,368.68 378.34,364.86 C371.80,358.80 363.94,357.39 356.50,360.97 C351.02,363.60 349.59,364.90 347.13,369.50 C341.38,380.23 347.32,395.41 358.68,399.04 ZM 529.00 290.15 C529.00,290.52 534.06,288.55 540.25,285.79 C559.01,277.39 569.20,272.98 575.50,270.53 C578.80,269.25 585.00,266.59 589.27,264.61 L 597.05 261.03 L 594.40 255.76 C589.39,245.79 583.91,237.00 582.71,237.00 C581.49,237.00 529.00,288.94 529.00,290.15 ZM 555.77 496.32 C570.43,510.91 582.75,522.65 583.16,522.40 C583.56,522.15 585.43,519.15 587.31,515.72 C589.19,512.30 592.03,507.16 593.61,504.29 C593.75,504.04 593.89,503.80 594.02,503.56 C595.10,501.63 595.79,500.41 595.59,499.34 C595.21,497.35 591.69,495.95 581.73,491.63 C575.55,488.95 566.63,485.01 561.91,482.88 C557.18,480.75 552.99,479.00 552.60,479.00 C552.20,479.00 548.09,477.19 543.45,474.98 C526.51,466.89 526.89,467.55 555.77,496.32 ZM 596.00 388.34 C610.03,391.94 621.95,394.77 622.50,394.61 C623.91,394.22 624.40,365.00 622.99,365.00 C621.64,365.00 599.76,370.34 586.00,374.03 C580.22,375.58 572.93,377.40 569.78,378.07 C563.79,379.36 563.11,380.42 567.74,381.28 C569.26,381.56 581.97,384.74 596.00,388.34 ZM 110.68 394.34 C111.05,394.72 112.29,394.72 113.43,394.36 C114.57,393.99 118.88,392.89 123.00,391.92 C141.85,387.48 166.54,380.86 167.37,380.03 C167.93,379.47 167.35,378.90 165.89,378.57 C164.58,378.28 159.90,377.13 155.50,376.02 C151.10,374.91 142.77,372.85 137.00,371.44 C131.23,370.04 123.35,368.01 119.50,366.94 C115.65,365.87 111.94,365.00 111.25,365.00 C110.31,365.00 110.00,368.54 110.00,379.33 C110.00,387.22 110.30,393.97 110.68,394.34 ZM 176.90 279.66 C197.19,289.13 198.00,289.47 198.00,288.30 C198.00,286.88 149.98,239.90 149.09,240.45 C147.44,241.47 137.83,260.12 138.34,261.33 C138.61,261.97 142.98,264.30 148.06,266.50 C153.14,268.70 166.12,274.62 176.90,279.66 ZM 147.24 515.80 C148.33,517.61 149.58,518.96 150.02,518.80 C151.93,518.08 198.29,471.60 197.39,471.30 C196.84,471.11 189.67,474.17 181.46,478.09 C173.25,482.01 164.50,486.03 162.01,487.02 C153.66,490.36 138.00,497.93 138.00,498.62 C138.00,499.32 143.61,509.75 147.24,515.80 ZM 363.30 454.95 C362.99,456.14 363.25,457.00 363.91,457.00 C365.37,457.00 365.42,456.79 367.47,443.00 C368.41,436.67 369.41,430.31 369.69,428.85 C370.19,426.30 370.03,426.20 364.99,425.85 L 359.78 425.50 L 360.37 430.00 C360.69,432.48 361.61,438.64 362.40,443.70 C363.19,448.76 363.60,453.83 363.30,454.95 ZM 323.00 441.75 C323.00,442.58 323.15,442.42 333.44,430.50 L 342.07 420.50 L 338.55 417.25 C336.61,415.46 334.64,414.00 334.17,414.00 C333.69,414.00 332.53,415.91 331.58,418.25 C328.95,424.70 323.00,441.01 323.00,441.75 ZM 400.38 435.25 C404.13,440.00 406.83,441.57 405.52,438.25 C403.67,433.56 398.10,418.24 397.52,416.25 C396.67,413.33 396.21,413.40 391.12,417.14 L 386.85 420.28 L 391.73 425.39 C394.42,428.20 398.31,432.64 400.38,435.25 ZM 360.00 331.74 C360.00,333.15 360.87,333.50 364.42,333.50 C366.84,333.50 369.12,333.21 369.48,332.85 C370.27,332.06 366.12,306.85 365.00,305.65 C364.56,305.18 363.94,306.08 363.62,307.65 C362.58,312.79 360.00,329.94 360.00,331.74 ZM 391.55 341.51 C393.72,343.34 395.82,344.54 396.21,344.16 C397.42,343.00 406.88,318.54 406.33,318.00 C405.84,317.53 403.09,320.42 392.26,332.84 L 387.61 338.17 ZM 330.18 336.75 C331.93,340.74 333.63,344.00 333.95,344.00 C335.26,344.00 342.09,338.79 341.81,338.01 C341.34,336.72 323.75,317.92 323.37,318.30 C322.92,318.75 326.29,327.89 330.18,336.75 ZM 409.08 366.86 C409.82,369.33 410.73,370.68 411.40,370.29 C416.33,367.42 424.00,361.74 424.00,360.96 C424.00,360.42 420.24,360.00 415.39,360.00 C408.44,360.00 406.89,360.27 407.32,361.40 C407.62,362.16 408.41,364.62 409.08,366.86 ZM 407.00 398.68 C407.00,399.38 422.91,398.95 423.35,398.24 C423.81,397.49 411.13,387.48 410.57,388.15 C410.27,388.53 407.00,398.15 407.00,398.68 ZM 313.61 367.51 C315.63,368.88 317.57,370.00 317.92,370.00 C318.86,370.00 321.95,361.28 321.25,360.59 C320.24,359.57 304.00,359.94 304.00,360.97 C304.00,361.51 305.34,362.64 306.97,363.49 C308.61,364.33 311.60,366.14 313.61,367.51 ZM 305.24 397.75 C304.94,398.68 306.89,399.00 312.86,399.00 C317.27,399.00 321.12,398.61 321.41,398.14 C322.02,397.16 319.02,388.97 318.10,389.06 C316.59,389.22 305.60,396.64 305.24,397.75 Z" fill="rgb(2,2,2)"/>
<path d="M 363.30 454.95 C363.55,454.00 363.30,450.22 362.73,446.01 C363.08,448.09 363.39,449.83 363.61,450.89 C364.52,455.24 365.84,451.72 367.94,439.39 C368.23,437.67 368.51,436.02 368.76,434.51 C368.37,437.00 367.91,440.01 367.47,443.00 C365.42,456.79 365.37,457.00 363.91,457.00 C363.25,457.00 362.99,456.14 363.30,454.95 ZM 329.20 2.05 C332.34,1.65 334.99,1.31 336.50,1.10 C339.81,0.65 265.80,0.22 171.25,0.14 L 0.00 0.00 L 176.25 0.14 C279.18,0.23 347.51,0.63 340.50,1.11 C336.69,1.37 332.93,1.68 329.20,2.05 ZM 0.57 358.28 C0.88,356.45 1.46,350.89 1.98,344.50 C2.40,339.45 3.08,333.57 3.97,327.13 C2.67,337.22 1.78,347.84 0.66,364.00 C0.66,364.04 0.66,364.06 0.65,364.06 C0.63,364.06 0.60,362.05 0.57,358.28 ZM 522.97 34.71 C538.30,41.93 552.72,50.11 565.64,59.03 C557.89,53.68 542.78,44.82 531.00,38.72 C528.36,37.35 525.68,36.01 522.97,34.71 ZM 0.60 400.87 C0.63,397.95 0.65,396.40 0.68,396.40 C0.68,396.40 0.68,396.43 0.69,396.50 C0.90,400.70 1.17,404.82 1.49,408.90 C1.13,405.02 0.79,401.95 0.60,400.87 ZM 253.74 17.92 C255.91,17.19 258.02,16.50 260.00,15.87 C266.02,13.94 273.14,12.01 280.62,10.25 C271.71,12.42 262.80,14.97 253.74,17.92 ZM 391.65 0.64 C392.46,0.76 394.91,1.04 398.23,1.40 C394.65,1.11 391.07,0.87 387.50,0.69 C387.48,0.68 387.46,0.68 387.46,0.68 C387.46,0.67 388.89,0.65 391.65,0.64 ZM 7.78 453.60 C10.42,466.55 13.82,479.90 18.14,494.48 C14.05,481.09 10.54,467.24 7.78,453.60 ZM 417.06 3.45 C429.96,5.11 443.08,7.62 456.12,10.90 C443.28,7.73 430.20,5.23 417.06,3.45 ZM 23.75 511.48 C26.32,518.51 29.46,526.47 32.55,533.85 C32.23,533.10 31.90,532.35 31.59,531.60 C28.84,525.19 26.22,518.44 23.75,511.48 ZM 363.86 425.78 C360.69,425.61 360.00,425.92 360.00,427.17 L 359.78 425.50 ZM 234.78 24.62 C229.78,26.52 225.35,28.31 224.42,28.81 C225.74,28.10 229.68,26.52 234.78,24.62 ZM 2.28 417.54 C3.01,424.62 3.92,431.60 5.05,438.60 C3.88,431.41 2.95,424.36 2.28,417.54 ZM 369.08 426.36 C368.33,426.19 367.17,426.03 365.83,425.91 C367.46,426.03 368.47,426.13 369.08,426.36 ZM 7.78 453.60 C6.76,448.56 5.85,443.57 5.05,438.61 C5.85,443.55 6.77,448.56 7.78,453.60 ZM 369.67 428.96 C369.75,428.44 369.82,428.00 369.88,427.65 C369.86,427.98 369.79,428.37 369.69,428.85 C369.69,428.89 369.68,428.92 369.67,428.96 Z" fill="rgb(85,85,85)"/>
<path d="M 372.82 566.39 C372.72,565.93 372.63,565.46 372.53,565.00 C371.25,558.67 369.19,547.54 367.96,540.25 C366.72,532.96 365.36,527.00 364.93,527.00 C364.50,527.00 363.69,529.36 363.14,532.25 C362.82,533.90 362.16,537.37 361.38,541.43 C362.03,537.61 362.57,533.95 362.80,531.72 C363.18,527.99 363.93,524.94 364.46,524.94 C364.99,524.93 366.22,529.78 367.21,535.71 C368.19,541.65 370.55,554.60 372.45,564.50 C372.57,565.13 372.70,565.76 372.82,566.39 ZM 0.60 400.87 C0.79,401.95 1.13,405.02 1.49,408.90 C1.59,410.07 1.69,411.24 1.79,412.40 C1.50,410.02 1.17,408.15 0.92,407.50 C0.91,407.49 0.91,407.49 0.91,407.49 C0.73,407.49 0.56,420.65 0.42,442.83 C0.48,422.51 0.54,407.81 0.60,400.87 ZM 391.65 0.64 C397.81,0.61 410.61,0.58 429.09,0.54 C409.35,0.63 398.55,0.73 398.55,0.83 L 398.55 0.83 C398.84,1.09 400.83,1.48 403.70,1.89 C401.88,1.72 400.06,1.55 398.23,1.40 C394.91,1.04 392.46,0.76 391.65,0.64 ZM 0.44 330.03 C0.56,343.85 0.70,351.69 0.85,351.59 C1.10,351.44 1.40,350.02 1.69,347.90 C1.26,352.79 0.82,356.78 0.57,358.28 C0.53,352.60 0.48,342.91 0.44,330.03 ZM 414.54 3.12 C437.51,5.65 468.12,12.99 492.50,21.86 C495.84,23.08 499.28,24.41 502.79,25.85 C487.83,19.87 472.16,14.86 456.12,10.90 C443.08,7.62 429.96,5.11 417.06,3.45 C416.22,3.34 415.38,3.23 414.54,3.12 ZM 329.15 2.05 C320.26,2.92 311.58,4.09 302.99,5.58 C313.57,3.63 323.16,2.29 329.15,2.05 ZM 2.39 418.58 C3.05,425.08 3.94,431.78 5.05,438.60 L 5.05 438.61 L 5.05 438.61 C5.15,439.21 5.25,439.82 5.35,440.42 C6.07,444.79 6.88,449.17 7.78,453.60 L 7.78 453.60 C7.89,454.14 8.00,454.67 8.11,455.21 C5.18,441.45 3.20,428.89 2.39,418.58 ZM 381.17 611.73 C384.50,630.81 386.11,642.26 385.61,643.57 C386.05,642.43 384.09,628.95 381.17,611.73 ZM 2.53 338.74 C2.92,334.46 3.65,328.77 4.64,322.22 C4.40,323.86 4.18,325.49 3.97,327.13 C3.40,331.25 2.92,335.15 2.53,338.74 ZM 336.50 1.10 C336.02,1.17 335.44,1.25 334.75,1.34 C334.91,1.23 335.00,1.12 335.00,1.00 C335.00,0.98 334.97,0.97 334.91,0.95 C336.31,1.00 336.86,1.05 336.50,1.10 Z" fill="rgb(177,177,177)"/>
<path d="M 0.06 580.75 C0.10,484.36 0.48,406.40 0.92,407.50 C1.35,408.60 1.99,413.28 2.33,417.90 C3.88,438.60 10.25,468.65 19.59,499.31 C24.02,513.86 36.08,543.52 42.14,554.79 C46.36,562.64 56.07,579.69 58.50,583.51 C66.84,596.63 69.30,600.24 75.43,608.34 C91.50,629.57 103.49,643.01 120.99,659.41 C146.57,683.37 181.17,707.14 211.00,721.24 C217.88,724.49 224.30,727.58 225.29,728.11 C228.70,729.93 249.56,737.72 260.50,741.25 C274.90,745.90 299.85,751.63 315.78,753.95 C328.48,755.80 328.24,755.80 164.25,755.90 L 0.00 756.00 L 0.06 580.75 ZM 415.50 754.33 C466.11,747.62 521.78,726.35 565.33,697.09 C575.94,689.96 576.08,689.86 584.37,683.50 C588.67,680.20 593.84,676.24 595.85,674.70 C613.61,661.08 648.05,624.37 661.24,605.00 C662.17,603.62 664.26,600.70 665.87,598.50 C685.40,571.84 706.35,528.13 717.40,491.00 C729.15,451.53 735.24,406.09 733.41,371.50 C732.01,344.88 732.24,338.11 734.69,333.50 C740.88,321.87 752.95,317.32 780.36,316.27 L 795.22 315.70 L 794.52 319.10 C794.13,320.97 792.77,327.00 791.50,332.50 C778.65,388.30 775.86,402.35 773.39,423.56 C771.41,440.58 771.95,465.31 774.50,474.44 C781.53,499.62 802.13,512.54 825.54,506.45 C835.01,503.98 843.42,498.61 853.48,488.61 C861.27,480.87 872.62,465.75 874.69,460.36 C875.74,457.63 877.27,459.60 879.91,467.04 C889.10,493.01 908.53,508.00 933.00,508.00 C956.57,508.00 978.75,492.28 991.85,466.30 C995.99,458.09 1002.53,435.98 1004.50,423.55 C1005.36,418.08 1006.26,413.41 1006.49,413.18 C1006.72,412.94 1010.20,411.65 1014.21,410.31 C1027.68,405.80 1037.46,399.54 1049.04,388.00 C1058.64,378.44 1060.10,376.47 1065.39,365.97 C1072.51,351.83 1073.50,346.41 1069.67,342.58 C1065.53,338.43 1055.92,339.46 1054.10,344.23 C1050.02,354.95 1043.13,366.70 1037.06,373.28 C1030.71,380.17 1011.98,392.00 1007.43,392.00 C1006.73,392.00 1006.07,388.86 1005.69,383.75 C1004.47,367.06 998.04,349.61 989.72,340.42 C987.19,337.63 982.28,333.81 978.81,331.92 C972.82,328.67 971.99,328.50 962.50,328.50 C953.91,328.50 951.80,328.84 947.52,330.95 C940.40,334.46 934.74,340.70 931.89,348.20 C928.59,356.89 928.54,371.54 931.77,381.00 C938.31,400.13 959.42,414.92 980.25,414.99 C984.77,415.00 985.00,415.14 984.98,417.75 C984.96,422.42 981.11,439.13 978.36,446.50 C968.14,473.94 950.40,489.17 930.39,487.70 C909.68,486.17 896.21,467.23 894.33,437.00 C892.61,409.33 903.75,376.38 920.27,360.26 C927.64,353.07 929.54,349.16 927.97,344.40 C926.79,340.82 922.83,338.00 918.98,338.00 C914.82,338.00 909.54,341.88 902.36,350.23 C891.32,363.07 885.18,375.61 878.50,399.00 C875.90,408.08 872.98,417.52 871.99,420.00 C871.01,422.48 869.18,427.20 867.93,430.50 C859.64,452.44 839.58,478.79 826.50,484.94 C820.62,487.70 811.25,488.24 806.18,486.10 C801.91,484.30 796.43,477.09 794.39,470.60 C791.91,462.72 791.45,441.13 793.41,425.08 C795.18,410.63 801.17,379.20 806.01,359.00 C807.65,352.12 810.49,339.75 812.32,331.50 L 815.64 316.50 L 841.30 316.00 C865.69,315.52 867.05,315.40 869.05,313.40 C870.21,312.24 871.39,309.51 871.68,307.33 C872.12,304.07 871.76,302.84 869.70,300.43 L 867.18 297.50 L 843.84 297.00 C829.12,296.68 820.56,296.13 820.66,295.50 C820.99,293.39 828.09,260.78 831.44,246.00 C835.27,229.12 835.56,226.33 833.89,222.66 C831.00,216.32 819.66,216.58 816.98,223.04 C815.57,226.45 815.72,225.84 807.61,261.50 C803.99,277.45 800.66,291.85 800.22,293.50 L 799.43 296.50 L 778.96 297.12 C756.57,297.79 750.17,298.87 738.00,304.06 C722.81,310.53 714.87,318.48 708.86,333.22 C706.84,338.17 706.67,340.84 705.98,376.50 C705.09,422.65 703.23,438.24 694.39,473.35 C691.99,482.90 685.83,502.45 683.95,506.50 C683.44,507.60 681.92,511.42 680.59,515.00 C664.07,559.11 627.42,611.28 589.50,644.64 C548.72,680.52 503.77,705.25 454.23,719.07 C435.03,724.43 424.81,726.44 403.50,729.03 C387.87,730.94 382.20,731.16 360.50,730.72 C327.93,730.06 307.91,727.10 278.00,718.51 C229.12,704.48 183.84,679.31 144.50,644.29 C109.20,612.87 80.82,574.19 60.17,529.36 C45.94,498.47 35.04,460.12 30.80,426.00 C29.04,411.80 29.05,351.95 30.82,339.00 C34.34,313.27 41.56,283.08 49.49,261.00 C56.02,242.80 71.70,210.13 79.96,197.50 C82.12,194.20 85.22,189.25 86.85,186.50 C90.00,181.17 99.70,168.03 109.43,155.89 C117.27,146.11 144.56,118.88 154.00,111.43 C177.50,92.88 194.63,81.69 217.00,70.31 C245.19,55.96 277.46,44.90 306.81,39.53 C343.58,32.80 386.80,32.64 424.50,39.08 C442.19,42.11 475.01,51.51 491.00,58.14 C501.78,62.61 526.47,74.57 533.50,78.73 C539.68,82.38 562.19,97.32 567.48,101.27 C596.28,122.79 628.74,157.19 647.42,186.00 C659.65,204.86 663.94,212.40 670.48,226.50 C673.54,233.10 676.50,239.32 677.07,240.32 C677.64,241.31 679.41,245.69 681.01,250.03 C686.68,265.41 689.68,269.26 696.90,270.48 C701.92,271.33 706.99,269.20 710.28,264.86 C714.52,259.28 714.58,255.76 710.62,245.00 C696.81,207.44 678.82,173.58 658.12,146.20 C655.03,142.11 651.48,137.35 650.23,135.64 C646.06,129.88 624.13,106.50 614.77,97.83 C599.47,83.65 585.53,72.24 575.50,65.69 C573.30,64.26 568.86,61.26 565.64,59.03 C546.47,45.79 516.75,30.69 492.50,21.86 C467.09,12.61 434.90,5.03 411.66,2.82 C404.97,2.19 399.07,1.29 398.55,0.83 C398.03,0.37 620.22,0.00 892.30,0.00 L 1387.00 0.00 L 1386.98 274.25 C1386.98,425.09 1386.62,547.95 1386.20,547.29 C1385.78,546.62 1383.72,545.36 1381.63,544.49 C1376.70,542.43 1371.91,543.87 1368.84,548.32 C1357.85,564.26 1346.90,575.76 1336.00,582.80 C1315.20,596.24 1290.48,600.01 1262.65,593.98 C1253.35,591.97 1232.25,585.30 1228.46,583.18 C1227.38,582.58 1220.65,579.40 1213.50,576.12 C1206.35,572.83 1196.90,568.11 1192.50,565.61 C1188.10,563.12 1180.11,558.70 1174.76,555.79 C1169.40,552.88 1165.01,550.19 1165.01,549.81 C1165.00,549.44 1170.06,544.01 1176.25,537.76 C1198.51,515.28 1206.73,506.00 1223.65,484.27 C1245.24,456.54 1257.22,438.53 1270.72,413.50 C1289.38,378.92 1299.12,351.96 1305.63,316.91 C1307.84,304.98 1308.18,267.76 1306.15,258.50 C1300.40,232.16 1292.59,214.38 1279.71,198.28 C1263.23,177.69 1241.47,164.66 1214.71,159.37 C1202.86,157.02 1200.05,156.83 1185.06,157.28 C1158.01,158.10 1140.88,163.27 1120.50,176.76 C1103.04,188.31 1089.58,203.71 1080.49,222.50 C1073.81,236.32 1071.67,242.73 1068.47,258.57 C1065.61,272.68 1065.98,276.27 1070.71,279.98 C1077.36,285.22 1085.19,280.63 1086.42,270.77 C1087.58,261.54 1092.54,244.09 1096.46,235.50 C1103.47,220.11 1110.04,211.30 1122.87,200.03 C1132.47,191.60 1140.96,186.65 1152.30,182.85 C1165.59,178.39 1174.57,177.00 1189.98,177.00 C1202.13,177.00 1205.19,177.36 1215.52,180.05 C1237.38,185.72 1252.60,195.83 1266.19,213.70 C1276.05,226.66 1283.65,245.86 1286.64,265.37 C1288.36,276.52 1288.02,302.04 1286.00,314.00 C1284.26,324.34 1278.37,346.74 1274.98,355.95 C1265.00,383.09 1246.57,418.26 1230.29,441.26 C1228.25,444.14 1224.99,448.79 1223.04,451.60 C1216.04,461.68 1201.66,479.89 1189.56,494.00 C1179.13,506.16 1147.10,539.00 1145.68,539.00 C1145.14,539.00 1140.61,536.93 1135.60,534.40 C1099.92,516.40 1069.44,512.86 1045.00,523.91 C1033.78,528.98 1023.43,540.15 1020.02,550.87 C1011.07,579.00 1025.35,604.29 1052.93,609.14 C1068.54,611.89 1091.63,604.73 1114.00,590.19 C1118.91,587.01 1137.25,573.24 1145.67,566.43 L 1148.83 563.87 L 1152.67 565.98 C1154.77,567.13 1157.85,568.89 1159.50,569.88 C1190.75,588.69 1224.95,604.59 1247.50,610.81 C1262.53,614.95 1268.59,615.98 1282.00,616.66 C1296.48,617.40 1308.11,615.97 1320.66,611.91 C1346.83,603.46 1366.28,587.95 1384.75,560.83 L 1387.00 557.53 L 1387.00 656.76 L 1387.00 756.00 L 895.75 755.90 C460.60,755.80 405.76,755.62 415.50,754.33 ZM 407.47 696.99 C423.94,694.66 448.01,688.93 463.50,683.66 C510.97,667.49 556.53,638.13 589.64,602.37 C627.27,561.72 652.64,515.62 666.46,462.78 C687.75,381.38 676.12,290.65 635.21,219.00 C614.76,183.19 588.44,152.49 555.70,126.25 C535.15,109.79 498.09,88.93 473.00,79.72 C403.21,54.10 324.86,54.81 257.02,81.66 C243.71,86.93 221.74,97.69 211.20,104.11 C159.52,135.56 116.92,182.36 90.22,237.00 C55.81,307.43 48.53,394.47 70.63,471.00 C90.86,541.03 135.26,603.54 193.42,643.83 C200.30,648.60 208.08,653.76 210.71,655.31 C213.35,656.85 218.04,659.60 221.14,661.42 C237.92,671.25 270.13,684.34 289.00,688.99 C293.12,690.01 299.95,691.75 304.18,692.86 C311.01,694.66 335.94,698.24 349.50,699.37 C361.16,700.34 392.97,699.04 407.47,696.99 ZM 1056.50 589.32 C1047.34,587.26 1042.77,583.85 1039.37,576.54 C1033.23,563.37 1039.72,548.05 1054.25,541.42 C1059.75,538.91 1061.92,538.52 1072.36,538.17 C1079.02,537.95 1086.79,538.29 1090.08,538.94 C1098.50,540.59 1112.26,545.23 1121.32,549.47 C1130.48,553.75 1130.66,553.02 1118.08,562.75 C1093.46,581.79 1069.33,592.20 1056.50,589.32 ZM 970.54 392.91 C957.96,388.53 949.00,376.81 949.00,364.74 C949.00,357.99 951.00,352.94 954.88,349.88 C957.00,348.20 958.56,347.88 963.07,348.20 C969.74,348.68 973.56,351.11 977.87,357.62 C982.55,364.68 986.42,380.22 985.82,389.50 L 985.50 394.50 L 981.00 394.74 C978.43,394.88 973.95,394.09 970.54,392.91 ZM 0.00 176.06 L 0.00 0.00 L 167.50 0.00 C278.50,0.00 335.00,0.34 335.00,1.00 C335.00,1.55 333.09,2.01 330.75,2.02 C317.57,2.06 280.43,9.34 259.97,15.88 C246.81,20.09 227.66,27.05 224.42,28.81 C223.37,29.39 217.21,32.34 210.74,35.37 C153.88,62.05 97.37,111.61 64.09,164.00 C61.47,168.12 57.45,174.43 55.15,178.00 C49.63,186.59 35.23,215.69 29.67,229.50 C22.14,248.19 11.97,281.43 8.95,297.20 C5.49,315.33 2.92,332.43 2.35,341.09 C1.99,346.58 1.31,351.31 0.85,351.59 C0.38,351.88 0.00,272.89 0.00,176.06 ZM 340.50 680.39 C307.92,675.70 287.02,670.42 263.15,660.85 C252.34,656.52 229.13,645.02 222.85,640.90 C220.84,639.58 215.91,636.47 211.88,634.00 C203.07,628.59 188.44,617.36 177.51,607.62 C124.30,560.19 89.24,494.16 79.50,423.00 C71.11,361.73 80.37,301.54 106.72,246.00 C116.03,226.37 131.03,202.18 141.47,189.95 C143.13,187.99 146.52,183.94 149.00,180.95 C175.75,148.57 215.66,119.32 257.31,101.57 C290.46,87.43 330.77,79.04 365.61,79.01 C378.81,79.00 402.76,81.13 416.69,83.56 C492.81,96.82 563.47,143.29 606.69,208.50 C617.93,225.46 618.22,225.95 625.90,241.50 C642.77,275.61 653.58,312.88 657.06,349.00 C658.57,364.56 658.56,396.95 657.05,411.34 C654.25,438.01 646.32,470.29 636.59,494.67 C632.79,504.18 621.28,527.89 617.75,533.47 C617.06,534.55 613.84,539.73 610.59,544.97 C587.07,582.92 547.97,620.45 508.50,642.95 C492.67,651.98 479.07,658.18 458.50,665.74 C453.50,667.58 433.18,673.37 426.50,674.87 C405.71,679.51 398.61,680.23 371.00,680.52 C355.88,680.69 342.15,680.62 340.50,680.39 ZM 406.89 660.06 C422.10,657.78 441.39,652.76 457.50,646.89 C472.38,641.46 500.39,627.53 511.93,619.81 C517.12,616.34 523.04,612.38 525.09,611.00 C530.90,607.11 548.80,591.99 556.00,584.89 C567.34,573.71 582.32,556.22 589.30,546.00 C618.66,502.99 632.88,466.81 639.90,417.25 C646.62,369.82 640.39,318.79 622.34,273.50 C617.00,260.11 609.64,244.47 605.16,237.00 C604.00,235.07 602.33,232.20 601.44,230.62 C600.54,229.04 596.40,222.74 592.22,216.62 C565.04,176.82 527.20,144.31 483.00,122.76 C458.10,110.62 424.86,101.09 396.79,98.05 C384.49,96.72 349.32,96.70 337.50,98.02 C305.51,101.60 272.55,111.76 243.23,127.10 C219.07,139.74 200.75,152.94 180.23,172.50 C141.16,209.73 112.93,258.97 100.53,311.50 C87.94,364.84 90.25,421.35 107.02,470.50 C113.38,489.13 116.66,496.77 125.59,513.78 C143.00,546.92 165.51,575.00 193.00,597.90 C236.94,634.49 286.56,655.68 343.00,661.94 C356.30,663.42 391.34,662.38 406.89,660.06 ZM 346.25 644.28 C344.46,644.05 343.00,643.34 343.00,642.69 C343.00,642.03 345.05,630.25 347.56,616.50 C350.07,602.75 353.22,585.42 354.55,578.00 C355.88,570.58 358.13,558.42 359.55,551.00 C360.97,543.58 362.59,535.14 363.14,532.25 C363.69,529.36 364.50,527.00 364.93,527.00 C365.36,527.00 366.72,532.96 367.96,540.25 C369.19,547.54 371.25,558.67 372.53,565.00 C379.03,597.07 386.42,641.47 385.61,643.57 C385.16,644.74 381.88,644.97 367.28,644.84 C357.50,644.75 348.04,644.50 346.25,644.28 ZM 399.49 641.67 C399.28,641.03 398.39,636.00 397.50,630.50 C396.62,625.00 395.22,617.13 394.39,613.01 C393.56,608.89 391.57,598.09 389.97,589.01 C384.25,556.63 381.54,541.68 374.41,503.24 C372.24,491.52 371.96,488.22 372.82,484.74 C373.40,482.41 375.52,470.83 377.55,459.00 C379.57,447.17 381.55,436.90 381.95,436.16 C382.46,435.22 385.90,438.61 393.13,447.16 C398.87,453.95 404.46,460.68 405.54,462.12 C406.62,463.56 410.23,468.29 413.56,472.62 C420.13,481.17 421.16,483.57 432.55,517.00 C441.76,544.00 451.47,572.61 455.46,584.50 C457.31,590.00 460.90,600.54 463.45,607.93 C465.99,615.32 467.89,621.85 467.66,622.43 C466.53,625.40 435.01,635.99 417.00,639.46 C409.58,640.89 402.68,642.24 401.69,642.45 C400.69,642.67 399.70,642.32 399.49,641.67 ZM 314.26 638.96 C292.92,634.47 262.00,623.26 262.00,620.01 C262.00,619.18 264.28,611.97 267.07,604.00 C269.86,596.02 273.42,585.67 274.97,581.00 C284.46,552.46 307.33,486.44 309.26,482.00 C310.78,478.48 315.31,472.18 322.21,463.93 C324.26,461.49 330.47,453.99 336.03,447.25 C341.59,440.51 346.54,435.00 347.02,435.00 C347.94,435.00 348.10,435.70 350.39,450.00 C351.13,454.67 352.99,465.58 354.51,474.22 L 357.27 489.94 L 354.62 505.22 C351.91,520.76 347.90,542.65 339.54,587.50 C336.97,601.25 333.81,618.53 332.50,625.90 C331.20,633.27 329.54,639.84 328.82,640.52 C327.77,641.49 324.75,641.16 314.26,638.96 ZM 476.80 605.75 C474.83,599.56 468.19,579.88 462.03,562.00 C448.33,522.19 444.69,510.97 445.30,510.37 C445.73,509.94 464.12,531.08 485.50,556.58 C490.45,562.48 499.54,573.18 505.70,580.36 C514.28,590.37 516.64,593.72 515.81,594.72 C513.84,597.10 482.53,617.00 480.76,617.00 C480.55,617.00 478.76,611.94 476.80,605.75 ZM 236.45 607.20 C221.56,597.69 215.00,592.95 215.00,591.70 C215.00,591.18 218.26,586.95 222.25,582.31 C226.24,577.67 230.62,572.42 232.00,570.64 C233.38,568.86 244.62,555.53 257.00,541.01 C269.38,526.50 280.47,513.47 281.66,512.06 C286.28,506.60 285.93,507.94 272.16,548.00 C268.29,559.28 261.69,578.62 257.49,591.00 C253.29,603.38 249.55,613.81 249.18,614.20 C248.80,614.58 243.08,611.43 236.45,607.20 ZM 526.85 585.15 C526.66,584.62 522.22,579.28 517.00,573.28 C511.77,567.29 505.70,560.20 503.50,557.53 C501.30,554.86 496.35,549.00 492.50,544.51 C488.65,540.01 483.70,534.14 481.50,531.45 C479.30,528.77 473.00,521.32 467.50,514.90 C462.00,508.49 453.67,498.61 449.00,492.96 C444.33,487.31 439.12,481.07 437.43,479.09 C432.64,473.48 430.38,469.83 429.01,465.50 C428.32,463.30 423.73,450.53 418.83,437.13 C413.92,423.72 410.04,412.62 410.21,412.46 C410.37,412.30 417.55,412.04 426.17,411.87 C441.51,411.58 441.92,411.62 445.35,414.06 C452.48,419.14 491.37,452.54 503.43,463.95 C528.66,487.82 575.00,533.30 575.00,534.18 C575.00,537.34 549.97,566.21 538.37,576.43 C527.25,586.23 527.25,586.23 526.85,585.15 ZM 196.23 576.75 C183.67,565.07 173.31,553.75 164.25,541.80 C156.77,531.94 156.77,531.81 163.65,524.81 C192.91,495.03 236.90,452.81 250.50,441.47 C254.35,438.25 260.20,433.29 263.50,430.43 C266.80,427.57 273.47,422.10 278.33,418.29 L 287.16 411.35 L 303.33 411.79 C312.22,412.04 319.60,412.33 319.73,412.43 C319.85,412.53 316.44,421.82 312.16,433.06 C307.87,444.30 302.85,457.72 301.01,462.89 C298.90,468.79 296.33,473.85 294.08,476.50 C292.11,478.82 288.88,482.70 286.90,485.11 C284.93,487.53 278.39,495.35 272.39,502.50 C266.38,509.65 260.50,516.76 259.31,518.29 C258.12,519.83 254.90,523.65 252.16,526.79 C249.42,529.93 237.44,543.86 225.54,557.75 C213.64,571.64 203.69,583.00 203.43,583.00 C203.17,583.00 199.92,580.19 196.23,576.75 ZM 555.77 496.32 C526.89,467.55 526.51,466.89 543.45,474.98 C548.09,477.19 552.20,479.00 552.60,479.00 C552.99,479.00 557.18,480.75 561.91,482.88 C566.63,485.01 575.55,488.95 581.73,491.63 C597.64,498.53 597.12,497.98 593.61,504.29 C592.03,507.16 589.19,512.30 587.31,515.72 C585.43,519.15 583.56,522.15 583.16,522.40 C582.75,522.65 570.43,510.91 555.77,496.32 ZM 147.24 515.80 C143.61,509.75 138.00,499.32 138.00,498.62 C138.00,497.93 153.66,490.36 162.01,487.02 C164.50,486.03 173.25,482.01 181.46,478.09 C189.67,474.17 196.84,471.11 197.39,471.30 C198.29,471.60 151.93,518.08 150.02,518.80 C149.58,518.96 148.33,517.61 147.24,515.80 ZM 131.01 483.75 C128.37,477.49 123.00,462.92 123.00,462.03 C123.00,461.48 121.67,456.86 120.04,451.76 C115.97,439.07 110.58,408.00 112.43,408.00 C113.61,408.00 155.54,397.30 170.00,393.31 C179.07,390.81 188.19,388.36 190.25,387.87 C193.38,387.14 196.56,387.75 209.75,391.61 C218.41,394.15 235.13,398.87 246.90,402.10 C258.67,405.33 268.48,408.14 268.69,408.36 C268.91,408.58 264.49,412.52 258.88,417.13 C253.26,421.73 245.50,428.32 241.62,431.77 C234.02,438.54 220.98,445.39 177.50,465.43 C165.95,470.75 154.25,476.17 151.50,477.48 C141.85,482.06 133.08,486.00 132.52,486.00 C132.21,486.00 131.53,484.99 131.01,483.75 ZM 593.50 482.62 C589.65,480.76 577.95,475.54 567.50,471.02 C557.05,466.50 546.70,461.98 544.50,460.97 C514.85,447.43 498.33,439.60 495.26,437.64 C493.19,436.32 487.23,431.51 482.00,426.96 C476.77,422.40 469.62,416.41 466.11,413.63 C460.11,408.90 459.86,408.55 462.11,407.91 C463.42,407.53 470.12,405.78 477.00,404.02 C483.88,402.26 500.69,397.68 514.36,393.85 L 539.22 386.87 L 552.86 390.57 C560.36,392.61 568.08,394.82 570.00,395.49 C571.92,396.16 584.53,399.31 598.00,402.50 C611.47,405.69 622.63,408.40 622.80,408.53 C623.32,408.94 620.04,428.12 617.41,440.00 C613.50,457.71 603.54,486.00 601.23,486.00 C600.82,486.00 597.34,484.48 593.50,482.62 ZM 363.61 450.89 C362.66,446.30 360.00,428.86 360.00,427.18 C360.00,425.78 360.84,425.56 365.00,425.85 C367.75,426.04 370.00,426.44 370.00,426.74 C370.00,427.03 369.07,432.73 367.94,439.39 C365.84,451.72 364.52,455.24 363.61,450.89 ZM 323.00 441.75 C323.00,441.01 328.95,424.70 331.58,418.25 C332.53,415.91 333.69,414.00 334.17,414.00 C334.64,414.00 336.61,415.46 338.55,417.25 L 342.07 420.50 L 333.44 430.50 C323.15,442.42 323.00,442.58 323.00,441.75 ZM 400.38 435.25 C398.31,432.64 394.42,428.20 391.73,425.39 L 386.85 420.28 L 391.12 417.14 C396.21,413.40 396.67,413.33 397.52,416.25 C398.10,418.24 403.67,433.56 405.52,438.25 C406.83,441.57 404.13,440.00 400.38,435.25 ZM 358.68 399.04 C347.32,395.41 341.38,380.23 347.13,369.50 C349.59,364.90 351.02,363.60 356.50,360.97 C363.94,357.39 371.80,358.80 378.34,364.86 C382.45,368.68 384.24,372.70 384.38,378.45 C384.71,392.14 371.15,403.01 358.68,399.04 ZM 305.24 397.75 C305.60,396.64 316.59,389.22 318.10,389.06 C319.02,388.97 322.02,397.16 321.41,398.14 C321.12,398.61 317.27,399.00 312.86,399.00 C306.89,399.00 304.94,398.68 305.24,397.75 ZM 407.00 398.68 C407.00,398.15 410.27,388.53 410.57,388.15 C411.13,387.48 423.81,397.49 423.35,398.24 C422.91,398.95 407.00,399.38 407.00,398.68 ZM 440.00 393.44 C436.98,390.99 432.18,387.40 429.34,385.46 C424.27,381.99 421.33,379.23 422.11,378.66 C422.32,378.51 427.38,374.85 433.35,370.55 L 444.21 362.72 L 451.85 363.35 C456.06,363.69 461.98,364.69 465.00,365.57 C468.02,366.46 475.00,368.29 480.50,369.64 C486.00,371.00 494.10,373.19 498.50,374.52 C502.90,375.85 508.47,377.43 510.88,378.04 C513.31,378.65 514.86,379.52 514.38,379.99 C513.89,380.46 507.42,382.44 500.00,384.40 C492.58,386.35 485.15,388.39 483.50,388.92 C479.24,390.29 465.73,393.63 457.50,395.35 C453.65,396.15 449.38,397.06 448.00,397.36 C446.07,397.78 444.24,396.88 440.00,393.44 ZM 271.50 394.91 C259.92,392.09 227.11,383.19 222.96,381.74 C221.01,381.06 219.30,380.09 219.16,379.58 C218.57,377.48 273.20,363.14 282.16,363.04 C284.83,363.01 286.89,363.87 289.81,366.25 C292.02,368.04 297.01,371.73 300.91,374.46 C304.81,377.19 308.00,379.49 308.00,379.57 C308.00,379.65 305.19,381.66 301.75,384.04 C298.31,386.42 293.00,390.31 289.94,392.69 C283.65,397.56 282.81,397.66 271.50,394.91 ZM 110.68 394.34 C110.30,393.97 110.00,387.22 110.00,379.33 C110.00,368.54 110.31,365.00 111.25,365.00 C111.94,365.00 115.65,365.87 119.50,366.94 C123.35,368.01 131.23,370.04 137.00,371.44 C142.77,372.85 151.10,374.91 155.50,376.02 C159.90,377.13 164.58,378.28 165.89,378.57 C167.35,378.90 167.93,379.47 167.37,380.03 C166.54,380.86 141.85,387.48 123.00,391.92 C118.88,392.89 114.57,393.99 113.43,394.36 C112.29,394.72 111.05,394.72 110.68,394.34 ZM 596.00 388.34 C581.97,384.74 569.26,381.56 567.74,381.28 C563.11,380.42 563.79,379.36 569.78,378.07 C572.93,377.40 580.22,375.58 586.00,374.03 C599.76,370.34 621.64,365.00 622.99,365.00 C624.40,365.00 623.91,394.22 622.50,394.61 C621.95,394.77 610.03,391.94 596.00,388.34 ZM 534.50 371.37 C531.75,370.56 523.20,368.10 515.50,365.90 C507.80,363.71 498.80,361.07 495.50,360.03 C492.20,359.00 483.32,356.74 475.76,355.01 C468.21,353.27 461.76,351.42 461.43,350.89 C461.10,350.36 462.10,348.93 463.66,347.71 C465.21,346.49 472.34,340.52 479.49,334.42 C486.65,328.33 495.42,321.72 499.00,319.74 C506.83,315.39 544.68,297.88 561.44,290.86 C568.07,288.08 576.81,284.27 580.85,282.40 C584.90,280.53 588.61,279.00 589.11,279.00 C589.60,279.00 592.34,277.88 595.19,276.50 C598.04,275.12 600.95,274.00 601.66,274.00 C603.39,274.00 604.93,277.31 609.79,291.50 C616.36,310.67 621.54,333.54 622.24,346.42 L 622.50 351.33 L 617.00 352.76 C613.97,353.55 606.10,355.45 599.50,356.98 C592.90,358.52 580.53,361.67 572.00,363.99 C563.47,366.30 553.58,368.98 550.00,369.94 C546.42,370.90 542.60,371.95 541.50,372.27 C540.40,372.58 537.25,372.18 534.50,371.37 ZM 182.50 369.91 C178.65,368.89 166.27,365.57 155.00,362.55 C143.73,359.53 130.40,356.15 125.38,355.05 C112.52,352.23 111.18,351.62 111.61,348.82 C115.69,322.39 121.11,300.37 127.67,283.54 C129.61,278.57 131.32,274.37 131.47,274.21 C131.81,273.85 143.43,278.27 147.50,280.31 C149.15,281.14 155.23,283.93 161.00,286.52 C166.77,289.11 176.00,293.25 181.50,295.72 C187.00,298.20 201.10,304.93 212.83,310.69 C230.28,319.27 235.58,322.38 242.00,327.83 C251.37,335.80 261.90,344.47 266.76,348.23 C269.21,350.11 269.86,351.11 268.90,351.45 C268.13,351.73 260.75,353.73 252.50,355.88 C244.25,358.04 233.45,360.99 228.50,362.43 C223.55,363.87 214.10,366.62 207.50,368.54 C194.05,372.46 192.38,372.55 182.50,369.91 ZM 409.08 366.86 C408.41,364.62 407.62,362.16 407.32,361.40 C406.89,360.27 408.44,360.00 415.39,360.00 C420.24,360.00 424.00,360.42 424.00,360.96 C424.00,361.74 416.33,367.42 411.40,370.29 C410.73,370.68 409.82,369.33 409.08,366.86 ZM 313.61 367.51 C311.60,366.14 308.61,364.33 306.97,363.49 C305.34,362.64 304.00,361.51 304.00,360.97 C304.00,359.94 320.24,359.57 321.25,360.59 C321.95,361.28 318.86,370.00 317.92,370.00 C317.57,370.00 315.63,368.88 313.61,367.51 ZM 283.19 344.75 C280.99,342.96 276.34,339.25 272.85,336.50 C269.36,333.75 265.15,330.33 263.50,328.90 C228.74,298.74 209.34,280.62 176.77,247.86 L 157.03 228.02 L 160.05 223.76 C161.71,221.42 163.82,218.38 164.75,217.00 C171.45,207.05 199.36,177.64 201.45,178.30 C202.34,178.58 210.55,188.44 222.50,203.60 C225.38,207.25 227.95,210.35 247.00,233.10 C259.90,248.52 275.13,266.16 287.10,279.59 C295.56,289.07 298.43,293.06 300.41,298.09 C301.80,301.62 304.78,309.23 307.03,315.00 C309.29,320.77 312.50,328.65 314.16,332.50 C315.83,336.35 317.84,340.99 318.62,342.82 C319.40,344.64 319.77,346.56 319.46,347.07 C319.14,347.58 311.75,348.00 303.04,348.00 L 287.19 348.00 L 283.19 344.75 ZM 410.00 346.88 C410.00,346.27 411.97,340.98 414.37,335.13 C419.20,323.39 425.85,306.23 428.57,298.50 C430.72,292.39 433.03,289.18 444.05,277.00 C455.74,264.07 491.71,221.74 498.29,213.14 C499.83,211.14 502.39,207.93 503.97,206.00 C508.38,200.67 517.93,188.95 523.44,182.12 C526.17,178.73 529.18,176.00 530.17,176.00 C534.12,176.00 568.85,213.12 573.87,222.71 C574.95,224.77 573.23,226.73 549.26,250.71 C514.68,285.30 485.19,312.73 462.94,331.00 C460.60,332.92 457.29,335.66 455.59,337.08 C453.89,338.50 449.98,341.53 446.91,343.83 L 441.32 348.00 L 425.66 348.00 C414.79,348.00 410.00,347.66 410.00,346.88 ZM 391.55 341.51 L 387.61 338.17 L 392.26 332.84 C403.09,320.42 405.84,317.53 406.33,318.00 C406.88,318.54 397.42,343.00 396.21,344.16 C395.82,344.54 393.72,343.34 391.55,341.51 ZM 330.18 336.75 C326.29,327.89 322.92,318.75 323.37,318.30 C323.75,317.92 341.34,336.72 341.81,338.01 C342.09,338.79 335.26,344.00 333.95,344.00 C333.63,344.00 331.93,340.74 330.18,336.75 ZM 360.00 331.74 C360.00,329.94 362.58,312.79 363.62,307.65 C363.94,306.08 364.56,305.18 365.00,305.65 C366.12,306.85 370.27,332.06 369.48,332.85 C369.12,333.21 366.84,333.50 364.42,333.50 C360.87,333.50 360.00,333.15 360.00,331.74 ZM 381.15 319.00 C380.55,315.98 379.13,308.33 377.99,302.00 C376.85,295.67 375.00,285.67 373.87,279.77 L 371.82 269.05 L 374.42 255.27 C375.86,247.70 378.36,234.52 379.99,226.00 C387.03,189.16 390.55,169.93 397.45,130.73 C398.69,123.71 399.96,117.70 400.29,117.38 C402.89,114.78 452.30,128.42 466.05,135.53 L 468.81 136.96 L 465.45 146.73 C463.60,152.10 458.87,166.62 454.93,179.00 C444.10,213.10 426.17,266.46 422.39,275.84 C418.87,284.57 419.18,284.19 387.75,318.50 L 382.25 324.50 L 381.15 319.00 ZM 336.42 312.67 C322.39,298.05 311.78,286.27 309.84,283.16 C307.80,279.89 296.50,249.63 289.99,230.00 C282.06,206.09 260.79,140.57 260.64,139.59 C260.49,138.59 268.44,134.96 282.66,129.55 C293.18,125.54 315.81,119.51 324.25,118.48 C329.93,117.78 330.00,117.80 330.00,120.31 C330.00,121.70 330.45,125.02 330.99,127.67 C331.54,130.33 333.32,139.70 334.95,148.50 C340.62,179.16 344.05,197.73 350.61,233.29 L 357.20 269.07 L 354.53 283.79 C352.12,297.05 349.77,310.86 348.41,319.75 C348.13,321.54 347.55,323.00 347.12,323.00 C346.69,323.00 341.87,318.35 336.42,312.67 ZM 529.00 290.15 C529.00,288.94 581.49,237.00 582.71,237.00 C583.91,237.00 589.39,245.79 594.40,255.76 L 597.05 261.03 L 589.27 264.61 C585.00,266.59 578.80,269.25 575.50,270.53 C569.20,272.98 559.01,277.39 540.25,285.79 C534.06,288.55 529.00,290.52 529.00,290.15 ZM 176.90 279.66 C166.12,274.62 153.14,268.70 148.06,266.50 C142.98,264.30 138.61,261.97 138.34,261.33 C137.83,260.12 147.44,241.47 149.09,240.45 C149.98,239.90 198.00,286.88 198.00,288.30 C198.00,289.47 197.19,289.13 176.90,279.66 ZM 445.04 254.28 C445.02,253.62 447.27,246.19 450.03,237.78 C460.26,206.73 474.46,162.25 477.96,150.25 C479.13,146.26 480.53,143.00 481.08,143.00 C483.95,143.00 516.75,163.16 518.51,166.02 C519.04,166.87 514.83,172.20 490.50,201.46 C485.55,207.42 479.25,215.09 476.50,218.52 C471.78,224.42 456.26,242.75 448.58,251.50 C446.65,253.70 445.06,254.95 445.04,254.28 ZM 281.30 252.65 C280.86,251.91 277.72,248.19 274.33,244.40 C265.74,234.78 249.47,215.64 243.50,208.11 C240.75,204.64 235.80,198.52 232.50,194.51 C229.20,190.50 224.48,184.64 222.00,181.49 C219.52,178.34 216.22,174.25 214.66,172.39 L 211.82 169.03 L 214.75 166.55 C218.96,163.02 235.94,151.86 244.24,147.19 C247.70,145.23 248.04,145.21 248.86,146.79 C249.35,147.73 252.56,157.50 255.99,168.50 C261.56,186.34 281.76,247.78 283.52,252.25 C284.34,254.31 282.48,254.64 281.30,252.65 ZM 363.64 229.35 C363.33,227.78 361.45,217.95 359.48,207.50 C357.50,197.05 354.58,181.75 352.99,173.50 C347.80,146.60 342.89,116.78 343.54,116.13 C344.42,115.24 384.66,115.34 385.56,116.23 C386.35,117.02 383.63,134.41 379.02,158.00 C375.06,178.29 370.44,203.26 367.93,218.00 C365.69,231.13 364.58,234.08 363.64,229.35 Z" fill="rgb(254,254,254)"/>
</g>
</svg>